<mxfile host="app.diagrams.net" modified="2023-07-22T16:19:37.556Z" agent="Mozilla/5.0 (Macintosh; Intel Mac OS X 10_15_7) AppleWebKit/537.36 (KHTML, like Gecko) Chrome/114.0.0.0 Safari/537.36" etag="BWWzwfJzjvci3opC3DA8" version="21.6.3" type="device">
  <diagram name="Pagina-1" id="0fR_yFkh80TrKOe8aO8z">
    <mxGraphModel dx="2123" dy="1450" grid="1" gridSize="10" guides="1" tooltips="1" connect="1" arrows="1" fold="1" page="1" pageScale="1" pageWidth="1169" pageHeight="827" math="0" shadow="0">
      <root>
        <mxCell id="0" />
        <mxCell id="1" parent="0" />
        <mxCell id="6GUqICWd9C8v-F9M-gl0-9" style="edgeStyle=orthogonalEdgeStyle;rounded=0;orthogonalLoop=1;jettySize=auto;html=1;entryX=0.5;entryY=1;entryDx=0;entryDy=0;endArrow=none;endFill=0;exitX=0.5;exitY=0;exitDx=0;exitDy=0;" parent="1" source="6GUqICWd9C8v-F9M-gl0-1" target="6GUqICWd9C8v-F9M-gl0-3" edge="1">
          <mxGeometry relative="1" as="geometry" />
        </mxCell>
        <mxCell id="6GUqICWd9C8v-F9M-gl0-25" style="edgeStyle=orthogonalEdgeStyle;rounded=0;orthogonalLoop=1;jettySize=auto;html=1;entryX=0;entryY=0.5;entryDx=0;entryDy=0;endArrow=none;endFill=0;" parent="1" source="6GUqICWd9C8v-F9M-gl0-1" target="6GUqICWd9C8v-F9M-gl0-24" edge="1">
          <mxGeometry relative="1" as="geometry" />
        </mxCell>
        <mxCell id="cDWD59vqWW8E9XmD5x85-58" style="edgeStyle=orthogonalEdgeStyle;rounded=0;orthogonalLoop=1;jettySize=auto;html=1;exitX=0;exitY=0.25;exitDx=0;exitDy=0;entryX=0.649;entryY=0.9;entryDx=0;entryDy=0;entryPerimeter=0;endArrow=oval;endFill=1;" parent="1" source="6GUqICWd9C8v-F9M-gl0-1" target="cDWD59vqWW8E9XmD5x85-47" edge="1">
          <mxGeometry relative="1" as="geometry" />
        </mxCell>
        <mxCell id="cDWD59vqWW8E9XmD5x85-59" style="edgeStyle=orthogonalEdgeStyle;rounded=0;orthogonalLoop=1;jettySize=auto;html=1;exitX=0;exitY=0.5;exitDx=0;exitDy=0;entryX=0.955;entryY=0.645;entryDx=0;entryDy=0;entryPerimeter=0;endArrow=oval;endFill=0;shadow=1;" parent="1" source="6GUqICWd9C8v-F9M-gl0-1" target="cDWD59vqWW8E9XmD5x85-51" edge="1">
          <mxGeometry relative="1" as="geometry" />
        </mxCell>
        <mxCell id="cDWD59vqWW8E9XmD5x85-60" style="edgeStyle=orthogonalEdgeStyle;rounded=0;orthogonalLoop=1;jettySize=auto;html=1;exitX=0;exitY=0.75;exitDx=0;exitDy=0;entryX=0.972;entryY=0.527;entryDx=0;entryDy=0;entryPerimeter=0;endArrow=oval;endFill=0;" parent="1" source="6GUqICWd9C8v-F9M-gl0-1" target="cDWD59vqWW8E9XmD5x85-54" edge="1">
          <mxGeometry relative="1" as="geometry" />
        </mxCell>
        <mxCell id="cDWD59vqWW8E9XmD5x85-61" style="edgeStyle=orthogonalEdgeStyle;rounded=0;orthogonalLoop=1;jettySize=auto;html=1;exitX=0.001;exitY=0.881;exitDx=0;exitDy=0;entryX=1.086;entryY=0.567;entryDx=0;entryDy=0;entryPerimeter=0;exitPerimeter=0;endArrow=oval;endFill=0;" parent="1" source="6GUqICWd9C8v-F9M-gl0-1" target="cDWD59vqWW8E9XmD5x85-55" edge="1">
          <mxGeometry relative="1" as="geometry">
            <Array as="points">
              <mxPoint x="40" y="253" />
              <mxPoint x="40" y="287" />
            </Array>
          </mxGeometry>
        </mxCell>
        <mxCell id="6GUqICWd9C8v-F9M-gl0-1" value="PISCINA" style="rounded=0;whiteSpace=wrap;html=1;" parent="1" vertex="1">
          <mxGeometry x="90" y="200" width="120" height="60" as="geometry" />
        </mxCell>
        <mxCell id="6GUqICWd9C8v-F9M-gl0-2" value="TELEFONO" style="rounded=0;whiteSpace=wrap;html=1;" parent="1" vertex="1">
          <mxGeometry x="90" y="-60" width="120" height="60" as="geometry" />
        </mxCell>
        <mxCell id="6GUqICWd9C8v-F9M-gl0-7" style="edgeStyle=orthogonalEdgeStyle;rounded=0;orthogonalLoop=1;jettySize=auto;html=1;entryX=0.5;entryY=1;entryDx=0;entryDy=0;endArrow=none;endFill=0;" parent="1" source="6GUqICWd9C8v-F9M-gl0-3" target="6GUqICWd9C8v-F9M-gl0-2" edge="1">
          <mxGeometry relative="1" as="geometry" />
        </mxCell>
        <mxCell id="6GUqICWd9C8v-F9M-gl0-3" value="/\&lt;br&gt;&lt;div&gt;possiede&lt;/div&gt;" style="rhombus;whiteSpace=wrap;html=1;" parent="1" vertex="1">
          <mxGeometry x="110" y="50" width="80" height="80" as="geometry" />
        </mxCell>
        <mxCell id="6GUqICWd9C8v-F9M-gl0-14" style="edgeStyle=orthogonalEdgeStyle;rounded=0;orthogonalLoop=1;jettySize=auto;html=1;entryX=0;entryY=0.25;entryDx=0;entryDy=0;endArrow=none;endFill=0;startArrow=oval;startFill=1;" parent="1" source="6GUqICWd9C8v-F9M-gl0-13" target="6GUqICWd9C8v-F9M-gl0-2" edge="1">
          <mxGeometry relative="1" as="geometry" />
        </mxCell>
        <mxCell id="6GUqICWd9C8v-F9M-gl0-13" value="Telefono" style="text;html=1;align=center;verticalAlign=middle;resizable=0;points=[];autosize=1;strokeColor=none;fillColor=none;" parent="1" vertex="1">
          <mxGeometry x="-10" y="-60" width="70" height="30" as="geometry" />
        </mxCell>
        <mxCell id="6GUqICWd9C8v-F9M-gl0-26" style="edgeStyle=orthogonalEdgeStyle;rounded=0;orthogonalLoop=1;jettySize=auto;html=1;entryX=1;entryY=0.5;entryDx=0;entryDy=0;endArrow=none;endFill=0;" parent="1" source="6GUqICWd9C8v-F9M-gl0-23" target="6GUqICWd9C8v-F9M-gl0-24" edge="1">
          <mxGeometry relative="1" as="geometry" />
        </mxCell>
        <mxCell id="cDWD59vqWW8E9XmD5x85-77" style="edgeStyle=orthogonalEdgeStyle;rounded=0;orthogonalLoop=1;jettySize=auto;html=1;exitX=0.347;exitY=-0.001;exitDx=0;exitDy=0;exitPerimeter=0;endArrow=circle;endFill=0;" parent="1" source="6GUqICWd9C8v-F9M-gl0-23" target="cDWD59vqWW8E9XmD5x85-71" edge="1">
          <mxGeometry relative="1" as="geometry" />
        </mxCell>
        <mxCell id="cDWD59vqWW8E9XmD5x85-78" style="edgeStyle=orthogonalEdgeStyle;rounded=0;orthogonalLoop=1;jettySize=auto;html=1;exitX=0.641;exitY=-0.021;exitDx=0;exitDy=0;exitPerimeter=0;endArrow=circle;endFill=0;" parent="1" source="6GUqICWd9C8v-F9M-gl0-23" target="cDWD59vqWW8E9XmD5x85-72" edge="1">
          <mxGeometry relative="1" as="geometry" />
        </mxCell>
        <mxCell id="cDWD59vqWW8E9XmD5x85-79" style="edgeStyle=orthogonalEdgeStyle;rounded=0;orthogonalLoop=1;jettySize=auto;html=1;exitX=0.75;exitY=0;exitDx=0;exitDy=0;endArrow=circle;endFill=0;" parent="1" source="6GUqICWd9C8v-F9M-gl0-23" target="cDWD59vqWW8E9XmD5x85-73" edge="1">
          <mxGeometry relative="1" as="geometry">
            <Array as="points">
              <mxPoint x="875" y="180" />
              <mxPoint x="925" y="180" />
            </Array>
          </mxGeometry>
        </mxCell>
        <mxCell id="cDWD59vqWW8E9XmD5x85-80" style="edgeStyle=orthogonalEdgeStyle;rounded=0;orthogonalLoop=1;jettySize=auto;html=1;exitX=0.25;exitY=0;exitDx=0;exitDy=0;startArrow=none;startFill=0;endArrow=circle;endFill=0;" parent="1" source="6GUqICWd9C8v-F9M-gl0-23" target="cDWD59vqWW8E9XmD5x85-70" edge="1">
          <mxGeometry relative="1" as="geometry" />
        </mxCell>
        <mxCell id="6GUqICWd9C8v-F9M-gl0-23" value="VASCA" style="rounded=0;whiteSpace=wrap;html=1;" parent="1" vertex="1">
          <mxGeometry x="785" y="200" width="120" height="60" as="geometry" />
        </mxCell>
        <mxCell id="6GUqICWd9C8v-F9M-gl0-24" value="composta &amp;gt;" style="rhombus;whiteSpace=wrap;html=1;" parent="1" vertex="1">
          <mxGeometry x="490" y="190" width="80" height="80" as="geometry" />
        </mxCell>
        <mxCell id="6GUqICWd9C8v-F9M-gl0-35" value="1,n" style="text;html=1;align=center;verticalAlign=middle;resizable=0;points=[];autosize=1;strokeColor=none;fillColor=none;" parent="1" vertex="1">
          <mxGeometry x="150" width="40" height="30" as="geometry" />
        </mxCell>
        <mxCell id="6GUqICWd9C8v-F9M-gl0-36" value="1,1" style="text;html=1;align=center;verticalAlign=middle;resizable=0;points=[];autosize=1;strokeColor=none;fillColor=none;" parent="1" vertex="1">
          <mxGeometry x="110" y="170" width="40" height="30" as="geometry" />
        </mxCell>
        <mxCell id="6GUqICWd9C8v-F9M-gl0-37" value="1,1" style="text;html=1;align=center;verticalAlign=middle;resizable=0;points=[];autosize=1;strokeColor=none;fillColor=none;" parent="1" vertex="1">
          <mxGeometry x="215" y="200" width="40" height="30" as="geometry" />
        </mxCell>
        <mxCell id="6GUqICWd9C8v-F9M-gl0-38" value="1,N" style="text;html=1;align=center;verticalAlign=middle;resizable=0;points=[];autosize=1;strokeColor=none;fillColor=none;" parent="1" vertex="1">
          <mxGeometry x="745" y="230" width="40" height="30" as="geometry" />
        </mxCell>
        <mxCell id="RWj5NL5v489ZXOZt_Zdf-12" style="edgeStyle=orthogonalEdgeStyle;rounded=0;orthogonalLoop=1;jettySize=auto;html=1;entryX=0.5;entryY=1;entryDx=0;entryDy=0;endArrow=none;endFill=0;" parent="1" edge="1">
          <mxGeometry relative="1" as="geometry">
            <mxPoint x="305" y="389" as="sourcePoint" />
            <mxPoint x="195" y="260" as="targetPoint" />
          </mxGeometry>
        </mxCell>
        <mxCell id="LbghogEhIRzj0ne3dYNB-8" style="edgeStyle=orthogonalEdgeStyle;rounded=0;orthogonalLoop=1;jettySize=auto;html=1;entryX=0;entryY=0.5;entryDx=0;entryDy=0;endArrow=none;endFill=0;" parent="1" source="RWj5NL5v489ZXOZt_Zdf-2" target="LbghogEhIRzj0ne3dYNB-7" edge="1">
          <mxGeometry relative="1" as="geometry">
            <Array as="points" />
          </mxGeometry>
        </mxCell>
        <mxCell id="RWj5NL5v489ZXOZt_Zdf-2" value="assume &amp;gt;" style="rhombus;whiteSpace=wrap;html=1;" parent="1" vertex="1">
          <mxGeometry x="260" y="349" width="80" height="80" as="geometry" />
        </mxCell>
        <mxCell id="cDWD59vqWW8E9XmD5x85-16" style="edgeStyle=orthogonalEdgeStyle;rounded=0;orthogonalLoop=1;jettySize=auto;html=1;exitX=1;exitY=0.5;exitDx=0;exitDy=0;entryX=0;entryY=0.5;entryDx=0;entryDy=0;endArrow=none;endFill=0;" parent="1" source="RWj5NL5v489ZXOZt_Zdf-7" target="cDWD59vqWW8E9XmD5x85-12" edge="1">
          <mxGeometry relative="1" as="geometry" />
        </mxCell>
        <mxCell id="RWj5NL5v489ZXOZt_Zdf-7" value="RESPONSABILE" style="whiteSpace=wrap;html=1;" parent="1" vertex="1">
          <mxGeometry x="-270" y="570" width="120" height="60" as="geometry" />
        </mxCell>
        <mxCell id="RWj5NL5v489ZXOZt_Zdf-39" style="rounded=0;orthogonalLoop=1;jettySize=auto;html=1;exitX=1;exitY=0.5;exitDx=0;exitDy=0;entryX=0;entryY=0.5;entryDx=0;entryDy=0;endArrow=none;endFill=0;" parent="1" source="RWj5NL5v489ZXOZt_Zdf-8" target="RWj5NL5v489ZXOZt_Zdf-38" edge="1">
          <mxGeometry relative="1" as="geometry">
            <Array as="points" />
          </mxGeometry>
        </mxCell>
        <mxCell id="RWj5NL5v489ZXOZt_Zdf-8" value="ISTRUTTORE" style="whiteSpace=wrap;html=1;" parent="1" vertex="1">
          <mxGeometry x="400" y="570" width="120" height="60" as="geometry" />
        </mxCell>
        <mxCell id="RWj5NL5v489ZXOZt_Zdf-10" style="edgeStyle=orthogonalEdgeStyle;rounded=0;orthogonalLoop=1;jettySize=auto;html=1;endArrow=none;endFill=0;entryX=0.5;entryY=1;entryDx=0;entryDy=0;exitX=1;exitY=0.5;exitDx=0;exitDy=0;" parent="1" source="cDWD59vqWW8E9XmD5x85-64" target="6GUqICWd9C8v-F9M-gl0-1" edge="1">
          <mxGeometry relative="1" as="geometry">
            <mxPoint x="-189.9988235294117" y="460.0588235294117" as="sourcePoint" />
            <mxPoint x="130" y="261" as="targetPoint" />
            <Array as="points">
              <mxPoint x="150" y="350" />
            </Array>
          </mxGeometry>
        </mxCell>
        <mxCell id="RWj5NL5v489ZXOZt_Zdf-11" style="edgeStyle=orthogonalEdgeStyle;rounded=0;orthogonalLoop=1;jettySize=auto;html=1;entryX=0.5;entryY=0;entryDx=0;entryDy=0;endArrow=none;endFill=0;" parent="1" source="RWj5NL5v489ZXOZt_Zdf-9" target="RWj5NL5v489ZXOZt_Zdf-7" edge="1">
          <mxGeometry relative="1" as="geometry" />
        </mxCell>
        <mxCell id="RWj5NL5v489ZXOZt_Zdf-9" value="/\&lt;br&gt;&lt;div&gt;presenta&lt;/div&gt;" style="rhombus;whiteSpace=wrap;html=1;" parent="1" vertex="1">
          <mxGeometry x="-250" y="440" width="80" height="80" as="geometry" />
        </mxCell>
        <mxCell id="RWj5NL5v489ZXOZt_Zdf-14" value="TELEFONO PERSONALE" style="whiteSpace=wrap;html=1;" parent="1" vertex="1">
          <mxGeometry x="90" y="800" width="120" height="60" as="geometry" />
        </mxCell>
        <mxCell id="cDWD59vqWW8E9XmD5x85-65" style="edgeStyle=orthogonalEdgeStyle;rounded=0;orthogonalLoop=1;jettySize=auto;html=1;exitX=1;exitY=0.5;exitDx=0;exitDy=0;entryX=0;entryY=0.5;entryDx=0;entryDy=0;endArrow=none;endFill=0;" parent="1" source="RWj5NL5v489ZXOZt_Zdf-16" target="cDWD59vqWW8E9XmD5x85-64" edge="1">
          <mxGeometry relative="1" as="geometry" />
        </mxCell>
        <mxCell id="cDWD59vqWW8E9XmD5x85-66" style="edgeStyle=orthogonalEdgeStyle;rounded=0;orthogonalLoop=1;jettySize=auto;html=1;exitX=0.5;exitY=1;exitDx=0;exitDy=0;entryX=0.5;entryY=0;entryDx=0;entryDy=0;endArrow=none;endFill=0;" parent="1" source="RWj5NL5v489ZXOZt_Zdf-16" target="RWj5NL5v489ZXOZt_Zdf-9" edge="1">
          <mxGeometry relative="1" as="geometry" />
        </mxCell>
        <mxCell id="RWj5NL5v489ZXOZt_Zdf-16" value="REPERIBILITÀ" style="whiteSpace=wrap;html=1;" parent="1" vertex="1">
          <mxGeometry x="-270" y="320" width="120" height="60" as="geometry" />
        </mxCell>
        <mxCell id="RWj5NL5v489ZXOZt_Zdf-19" style="edgeStyle=orthogonalEdgeStyle;rounded=0;orthogonalLoop=1;jettySize=auto;html=1;exitX=1;exitY=0.5;exitDx=0;exitDy=0;entryX=0;entryY=0.5;entryDx=0;entryDy=0;fillColor=#a20025;strokeColor=#FFFFFF;endArrow=none;endFill=0;" parent="1" target="RWj5NL5v489ZXOZt_Zdf-7" edge="1">
          <mxGeometry relative="1" as="geometry">
            <mxPoint x="-300" y="600" as="sourcePoint" />
          </mxGeometry>
        </mxCell>
        <mxCell id="cDWD59vqWW8E9XmD5x85-23" style="edgeStyle=orthogonalEdgeStyle;rounded=0;orthogonalLoop=1;jettySize=auto;html=1;exitX=0.5;exitY=1;exitDx=0;exitDy=0;entryX=0.5;entryY=0;entryDx=0;entryDy=0;endArrow=none;endFill=0;" parent="1" source="RWj5NL5v489ZXOZt_Zdf-23" target="RWj5NL5v489ZXOZt_Zdf-14" edge="1">
          <mxGeometry relative="1" as="geometry" />
        </mxCell>
        <mxCell id="RWj5NL5v489ZXOZt_Zdf-23" value="&lt;div&gt;possiede&lt;/div&gt;\/" style="rhombus;whiteSpace=wrap;html=1;" parent="1" vertex="1">
          <mxGeometry x="110" y="670" width="80" height="80" as="geometry" />
        </mxCell>
        <mxCell id="cDWD59vqWW8E9XmD5x85-83" style="edgeStyle=orthogonalEdgeStyle;rounded=0;orthogonalLoop=1;jettySize=auto;html=1;exitX=0.5;exitY=1;exitDx=0;exitDy=0;endArrow=oval;endFill=0;" parent="1" source="RWj5NL5v489ZXOZt_Zdf-32" edge="1">
          <mxGeometry relative="1" as="geometry">
            <mxPoint x="459.52941176470586" y="939.9999999999995" as="targetPoint" />
          </mxGeometry>
        </mxCell>
        <mxCell id="RWj5NL5v489ZXOZt_Zdf-32" value="QUALIFICHE" style="whiteSpace=wrap;html=1;" parent="1" vertex="1">
          <mxGeometry x="400" y="850" width="120" height="60" as="geometry" />
        </mxCell>
        <mxCell id="RWj5NL5v489ZXOZt_Zdf-34" style="edgeStyle=orthogonalEdgeStyle;rounded=0;orthogonalLoop=1;jettySize=auto;html=1;endArrow=none;endFill=0;" parent="1" source="RWj5NL5v489ZXOZt_Zdf-33" target="RWj5NL5v489ZXOZt_Zdf-8" edge="1">
          <mxGeometry relative="1" as="geometry" />
        </mxCell>
        <mxCell id="RWj5NL5v489ZXOZt_Zdf-35" style="edgeStyle=orthogonalEdgeStyle;rounded=0;orthogonalLoop=1;jettySize=auto;html=1;entryX=0.5;entryY=0;entryDx=0;entryDy=0;endArrow=none;endFill=0;" parent="1" source="RWj5NL5v489ZXOZt_Zdf-33" target="RWj5NL5v489ZXOZt_Zdf-32" edge="1">
          <mxGeometry relative="1" as="geometry" />
        </mxCell>
        <mxCell id="RWj5NL5v489ZXOZt_Zdf-33" value="&lt;div&gt;presenta&lt;/div&gt;\/" style="rhombus;whiteSpace=wrap;html=1;" parent="1" vertex="1">
          <mxGeometry x="420" y="710" width="80" height="80" as="geometry" />
        </mxCell>
        <mxCell id="cDWD59vqWW8E9XmD5x85-111" style="edgeStyle=orthogonalEdgeStyle;rounded=0;orthogonalLoop=1;jettySize=auto;html=1;exitX=0.25;exitY=0;exitDx=0;exitDy=0;endArrow=oval;endFill=0;" parent="1" source="RWj5NL5v489ZXOZt_Zdf-36" target="cDWD59vqWW8E9XmD5x85-94" edge="1">
          <mxGeometry relative="1" as="geometry" />
        </mxCell>
        <mxCell id="cDWD59vqWW8E9XmD5x85-112" style="edgeStyle=orthogonalEdgeStyle;rounded=0;orthogonalLoop=1;jettySize=auto;html=1;exitX=0.5;exitY=0;exitDx=0;exitDy=0;endArrow=oval;endFill=0;" parent="1" source="RWj5NL5v489ZXOZt_Zdf-36" target="cDWD59vqWW8E9XmD5x85-95" edge="1">
          <mxGeometry relative="1" as="geometry" />
        </mxCell>
        <mxCell id="cDWD59vqWW8E9XmD5x85-113" style="edgeStyle=orthogonalEdgeStyle;rounded=0;orthogonalLoop=1;jettySize=auto;html=1;exitX=0.75;exitY=0;exitDx=0;exitDy=0;endArrow=oval;endFill=0;" parent="1" source="RWj5NL5v489ZXOZt_Zdf-36" target="cDWD59vqWW8E9XmD5x85-96" edge="1">
          <mxGeometry relative="1" as="geometry" />
        </mxCell>
        <mxCell id="RWj5NL5v489ZXOZt_Zdf-36" value="TIPOLOGIA CORSO NUOTO" style="whiteSpace=wrap;html=1;" parent="1" vertex="1">
          <mxGeometry x="1280" y="570" width="120" height="60" as="geometry" />
        </mxCell>
        <mxCell id="cDWD59vqWW8E9XmD5x85-98" style="edgeStyle=orthogonalEdgeStyle;rounded=0;orthogonalLoop=1;jettySize=auto;html=1;exitX=0.5;exitY=1;exitDx=0;exitDy=0;endArrow=oval;endFill=0;" parent="1" source="RWj5NL5v489ZXOZt_Zdf-37" target="cDWD59vqWW8E9XmD5x85-89" edge="1">
          <mxGeometry relative="1" as="geometry">
            <Array as="points">
              <mxPoint x="1010" y="830" />
            </Array>
          </mxGeometry>
        </mxCell>
        <mxCell id="cDWD59vqWW8E9XmD5x85-99" style="edgeStyle=orthogonalEdgeStyle;rounded=0;orthogonalLoop=1;jettySize=auto;html=1;exitX=0.5;exitY=1;exitDx=0;exitDy=0;endArrow=oval;endFill=0;" parent="1" source="RWj5NL5v489ZXOZt_Zdf-37" target="cDWD59vqWW8E9XmD5x85-93" edge="1">
          <mxGeometry relative="1" as="geometry">
            <Array as="points">
              <mxPoint x="1010" y="805" />
            </Array>
          </mxGeometry>
        </mxCell>
        <mxCell id="cDWD59vqWW8E9XmD5x85-101" style="edgeStyle=orthogonalEdgeStyle;rounded=0;orthogonalLoop=1;jettySize=auto;html=1;exitX=0.5;exitY=1;exitDx=0;exitDy=0;endArrow=oval;endFill=0;" parent="1" source="RWj5NL5v489ZXOZt_Zdf-37" target="cDWD59vqWW8E9XmD5x85-92" edge="1">
          <mxGeometry relative="1" as="geometry">
            <Array as="points">
              <mxPoint x="1010" y="775" />
            </Array>
          </mxGeometry>
        </mxCell>
        <mxCell id="cDWD59vqWW8E9XmD5x85-106" style="edgeStyle=orthogonalEdgeStyle;rounded=0;orthogonalLoop=1;jettySize=auto;html=1;exitX=0.5;exitY=1;exitDx=0;exitDy=0;endArrow=oval;endFill=0;" parent="1" source="RWj5NL5v489ZXOZt_Zdf-37" target="cDWD59vqWW8E9XmD5x85-90" edge="1">
          <mxGeometry relative="1" as="geometry">
            <Array as="points">
              <mxPoint x="1010" y="745" />
            </Array>
          </mxGeometry>
        </mxCell>
        <mxCell id="cDWD59vqWW8E9XmD5x85-107" style="edgeStyle=orthogonalEdgeStyle;rounded=0;orthogonalLoop=1;jettySize=auto;html=1;exitX=0.5;exitY=1;exitDx=0;exitDy=0;endArrow=oval;endFill=0;" parent="1" source="RWj5NL5v489ZXOZt_Zdf-37" target="cDWD59vqWW8E9XmD5x85-91" edge="1">
          <mxGeometry relative="1" as="geometry">
            <Array as="points">
              <mxPoint x="1010" y="715" />
            </Array>
          </mxGeometry>
        </mxCell>
        <mxCell id="cDWD59vqWW8E9XmD5x85-108" style="edgeStyle=orthogonalEdgeStyle;rounded=0;orthogonalLoop=1;jettySize=auto;html=1;exitX=0.5;exitY=1;exitDx=0;exitDy=0;endArrow=oval;endFill=0;" parent="1" source="RWj5NL5v489ZXOZt_Zdf-37" target="cDWD59vqWW8E9XmD5x85-86" edge="1">
          <mxGeometry relative="1" as="geometry">
            <Array as="points">
              <mxPoint x="1010" y="685" />
            </Array>
          </mxGeometry>
        </mxCell>
        <mxCell id="cDWD59vqWW8E9XmD5x85-109" style="edgeStyle=orthogonalEdgeStyle;rounded=0;orthogonalLoop=1;jettySize=auto;html=1;exitX=0.5;exitY=1;exitDx=0;exitDy=0;endArrow=oval;endFill=0;" parent="1" source="RWj5NL5v489ZXOZt_Zdf-37" target="cDWD59vqWW8E9XmD5x85-87" edge="1">
          <mxGeometry relative="1" as="geometry">
            <Array as="points">
              <mxPoint x="1010" y="655" />
            </Array>
          </mxGeometry>
        </mxCell>
        <mxCell id="RWj5NL5v489ZXOZt_Zdf-37" value="CORSO" style="whiteSpace=wrap;html=1;" parent="1" vertex="1">
          <mxGeometry x="950" y="570" width="120" height="60" as="geometry" />
        </mxCell>
        <mxCell id="RWj5NL5v489ZXOZt_Zdf-40" style="rounded=0;orthogonalLoop=1;jettySize=auto;html=1;exitX=1;exitY=0.5;exitDx=0;exitDy=0;entryX=0;entryY=0.5;entryDx=0;entryDy=0;endArrow=none;endFill=0;" parent="1" source="RWj5NL5v489ZXOZt_Zdf-38" target="RWj5NL5v489ZXOZt_Zdf-37" edge="1">
          <mxGeometry relative="1" as="geometry" />
        </mxCell>
        <mxCell id="RWj5NL5v489ZXOZt_Zdf-38" value="&amp;gt; è titolare" style="rhombus;whiteSpace=wrap;html=1;" parent="1" vertex="1">
          <mxGeometry x="705" y="560" width="80" height="80" as="geometry" />
        </mxCell>
        <mxCell id="RWj5NL5v489ZXOZt_Zdf-45" value="SOSTITUZIONE" style="whiteSpace=wrap;html=1;" parent="1" vertex="1">
          <mxGeometry x="690" y="850" width="120" height="60" as="geometry" />
        </mxCell>
        <mxCell id="RWj5NL5v489ZXOZt_Zdf-47" style="edgeStyle=orthogonalEdgeStyle;rounded=0;orthogonalLoop=1;jettySize=auto;html=1;exitX=0.5;exitY=0;exitDx=0;exitDy=0;entryX=1;entryY=0.75;entryDx=0;entryDy=0;endArrow=none;endFill=0;" parent="1" source="RWj5NL5v489ZXOZt_Zdf-46" target="RWj5NL5v489ZXOZt_Zdf-8" edge="1">
          <mxGeometry relative="1" as="geometry">
            <Array as="points">
              <mxPoint x="620" y="615" />
            </Array>
          </mxGeometry>
        </mxCell>
        <mxCell id="RWj5NL5v489ZXOZt_Zdf-48" style="edgeStyle=orthogonalEdgeStyle;rounded=0;orthogonalLoop=1;jettySize=auto;html=1;exitX=1;exitY=1;exitDx=0;exitDy=0;entryX=0.25;entryY=0;entryDx=0;entryDy=0;endArrow=none;endFill=0;" parent="1" source="RWj5NL5v489ZXOZt_Zdf-46" target="RWj5NL5v489ZXOZt_Zdf-45" edge="1">
          <mxGeometry relative="1" as="geometry" />
        </mxCell>
        <mxCell id="RWj5NL5v489ZXOZt_Zdf-46" value="&amp;gt; riceve" style="rhombus;whiteSpace=wrap;html=1;" parent="1" vertex="1">
          <mxGeometry x="580" y="730" width="80" height="80" as="geometry" />
        </mxCell>
        <mxCell id="RWj5NL5v489ZXOZt_Zdf-52" style="edgeStyle=orthogonalEdgeStyle;rounded=0;orthogonalLoop=1;jettySize=auto;html=1;exitX=0.5;exitY=0;exitDx=0;exitDy=0;entryX=0;entryY=0.75;entryDx=0;entryDy=0;endArrow=none;endFill=0;" parent="1" source="RWj5NL5v489ZXOZt_Zdf-51" target="RWj5NL5v489ZXOZt_Zdf-37" edge="1">
          <mxGeometry relative="1" as="geometry">
            <Array as="points">
              <mxPoint x="890" y="615" />
            </Array>
          </mxGeometry>
        </mxCell>
        <mxCell id="RWj5NL5v489ZXOZt_Zdf-53" style="edgeStyle=orthogonalEdgeStyle;rounded=0;orthogonalLoop=1;jettySize=auto;html=1;exitX=0;exitY=1;exitDx=0;exitDy=0;entryX=0.75;entryY=0;entryDx=0;entryDy=0;endArrow=none;endFill=0;" parent="1" source="RWj5NL5v489ZXOZt_Zdf-51" target="RWj5NL5v489ZXOZt_Zdf-45" edge="1">
          <mxGeometry relative="1" as="geometry" />
        </mxCell>
        <mxCell id="RWj5NL5v489ZXOZt_Zdf-51" value="riguarda &amp;gt;" style="rhombus;whiteSpace=wrap;html=1;" parent="1" vertex="1">
          <mxGeometry x="850" y="730" width="80" height="80" as="geometry" />
        </mxCell>
        <mxCell id="RWj5NL5v489ZXOZt_Zdf-57" style="edgeStyle=orthogonalEdgeStyle;rounded=0;orthogonalLoop=1;jettySize=auto;html=1;endArrow=none;endFill=0;entryX=1;entryY=0.75;entryDx=0;entryDy=0;" parent="1" source="RWj5NL5v489ZXOZt_Zdf-56" target="6GUqICWd9C8v-F9M-gl0-1" edge="1">
          <mxGeometry relative="1" as="geometry">
            <mxPoint x="260" y="340" as="targetPoint" />
            <Array as="points">
              <mxPoint x="745" y="280" />
              <mxPoint x="480" y="280" />
              <mxPoint x="480" y="245" />
            </Array>
          </mxGeometry>
        </mxCell>
        <mxCell id="RWj5NL5v489ZXOZt_Zdf-58" style="edgeStyle=orthogonalEdgeStyle;rounded=0;orthogonalLoop=1;jettySize=auto;html=1;endArrow=none;endFill=0;entryX=0.119;entryY=-0.011;entryDx=0;entryDy=0;entryPerimeter=0;" parent="1" source="RWj5NL5v489ZXOZt_Zdf-56" target="RWj5NL5v489ZXOZt_Zdf-37" edge="1">
          <mxGeometry relative="1" as="geometry">
            <mxPoint x="840" y="560" as="targetPoint" />
          </mxGeometry>
        </mxCell>
        <mxCell id="cDWD59vqWW8E9XmD5x85-110" style="edgeStyle=orthogonalEdgeStyle;rounded=0;orthogonalLoop=1;jettySize=auto;html=1;exitX=1;exitY=1;exitDx=0;exitDy=0;endArrow=oval;endFill=0;" parent="1" source="RWj5NL5v489ZXOZt_Zdf-56" target="cDWD59vqWW8E9XmD5x85-88" edge="1">
          <mxGeometry relative="1" as="geometry">
            <Array as="points">
              <mxPoint x="875" y="495" />
            </Array>
          </mxGeometry>
        </mxCell>
        <mxCell id="RWj5NL5v489ZXOZt_Zdf-56" value="&amp;lt; effettuato" style="rhombus;whiteSpace=wrap;html=1;" parent="1" vertex="1">
          <mxGeometry x="805" y="435" width="80" height="80" as="geometry" />
        </mxCell>
        <mxCell id="RWj5NL5v489ZXOZt_Zdf-62" style="edgeStyle=orthogonalEdgeStyle;rounded=0;orthogonalLoop=1;jettySize=auto;html=1;entryX=0.5;entryY=1;entryDx=0;entryDy=0;endArrow=none;endFill=0;" parent="1" source="RWj5NL5v489ZXOZt_Zdf-61" target="6GUqICWd9C8v-F9M-gl0-23" edge="1">
          <mxGeometry relative="1" as="geometry" />
        </mxCell>
        <mxCell id="RWj5NL5v489ZXOZt_Zdf-63" style="edgeStyle=orthogonalEdgeStyle;rounded=0;orthogonalLoop=1;jettySize=auto;html=1;entryX=0.25;entryY=0;entryDx=0;entryDy=0;endArrow=none;endFill=0;" parent="1" source="RWj5NL5v489ZXOZt_Zdf-61" target="RWj5NL5v489ZXOZt_Zdf-37" edge="1">
          <mxGeometry relative="1" as="geometry" />
        </mxCell>
        <mxCell id="RWj5NL5v489ZXOZt_Zdf-61" value="/\&lt;br&gt;si svolge" style="rhombus;whiteSpace=wrap;html=1;" parent="1" vertex="1">
          <mxGeometry x="805" y="333" width="80" height="80" as="geometry" />
        </mxCell>
        <mxCell id="RWj5NL5v489ZXOZt_Zdf-65" style="edgeStyle=orthogonalEdgeStyle;rounded=0;orthogonalLoop=1;jettySize=auto;html=1;exitX=0;exitY=0.5;exitDx=0;exitDy=0;entryX=1;entryY=0.5;entryDx=0;entryDy=0;endArrow=none;endFill=0;" parent="1" source="RWj5NL5v489ZXOZt_Zdf-64" target="RWj5NL5v489ZXOZt_Zdf-37" edge="1">
          <mxGeometry relative="1" as="geometry" />
        </mxCell>
        <mxCell id="RWj5NL5v489ZXOZt_Zdf-66" style="rounded=0;orthogonalLoop=1;jettySize=auto;html=1;entryX=0;entryY=0.5;entryDx=0;entryDy=0;endArrow=none;endFill=0;" parent="1" source="RWj5NL5v489ZXOZt_Zdf-64" target="RWj5NL5v489ZXOZt_Zdf-36" edge="1">
          <mxGeometry relative="1" as="geometry" />
        </mxCell>
        <mxCell id="RWj5NL5v489ZXOZt_Zdf-64" value="&amp;lt; raggruppa" style="rhombus;whiteSpace=wrap;html=1;" parent="1" vertex="1">
          <mxGeometry x="1150" y="560" width="80" height="80" as="geometry" />
        </mxCell>
        <mxCell id="cDWD59vqWW8E9XmD5x85-123" style="edgeStyle=orthogonalEdgeStyle;rounded=0;orthogonalLoop=1;jettySize=auto;html=1;exitX=0;exitY=0.25;exitDx=0;exitDy=0;endArrow=oval;endFill=1;" parent="1" source="RWj5NL5v489ZXOZt_Zdf-67" target="cDWD59vqWW8E9XmD5x85-118" edge="1">
          <mxGeometry relative="1" as="geometry">
            <Array as="points">
              <mxPoint x="570" y="-45" />
              <mxPoint x="570" y="-95" />
            </Array>
          </mxGeometry>
        </mxCell>
        <mxCell id="cDWD59vqWW8E9XmD5x85-124" style="edgeStyle=orthogonalEdgeStyle;rounded=0;orthogonalLoop=1;jettySize=auto;html=1;exitX=0;exitY=0.25;exitDx=0;exitDy=0;endArrow=oval;endFill=0;" parent="1" source="RWj5NL5v489ZXOZt_Zdf-67" target="cDWD59vqWW8E9XmD5x85-119" edge="1">
          <mxGeometry relative="1" as="geometry" />
        </mxCell>
        <mxCell id="cDWD59vqWW8E9XmD5x85-125" style="edgeStyle=orthogonalEdgeStyle;rounded=0;orthogonalLoop=1;jettySize=auto;html=1;exitX=0;exitY=0.5;exitDx=0;exitDy=0;endArrow=oval;endFill=0;" parent="1" source="RWj5NL5v489ZXOZt_Zdf-67" target="cDWD59vqWW8E9XmD5x85-120" edge="1">
          <mxGeometry relative="1" as="geometry" />
        </mxCell>
        <mxCell id="cDWD59vqWW8E9XmD5x85-126" style="edgeStyle=orthogonalEdgeStyle;rounded=0;orthogonalLoop=1;jettySize=auto;html=1;exitX=0;exitY=0.75;exitDx=0;exitDy=0;endArrow=oval;endFill=0;" parent="1" source="RWj5NL5v489ZXOZt_Zdf-67" target="cDWD59vqWW8E9XmD5x85-121" edge="1">
          <mxGeometry relative="1" as="geometry" />
        </mxCell>
        <mxCell id="cDWD59vqWW8E9XmD5x85-127" style="edgeStyle=orthogonalEdgeStyle;rounded=0;orthogonalLoop=1;jettySize=auto;html=1;exitX=0;exitY=0.75;exitDx=0;exitDy=0;endArrow=oval;endFill=0;" parent="1" source="RWj5NL5v489ZXOZt_Zdf-67" target="cDWD59vqWW8E9XmD5x85-122" edge="1">
          <mxGeometry relative="1" as="geometry">
            <Array as="points">
              <mxPoint x="570" y="-15" />
              <mxPoint x="570" y="25" />
            </Array>
          </mxGeometry>
        </mxCell>
        <mxCell id="RWj5NL5v489ZXOZt_Zdf-67" value="MEMBRO" style="whiteSpace=wrap;html=1;" parent="1" vertex="1">
          <mxGeometry x="590" y="-60" width="120" height="60" as="geometry" />
        </mxCell>
        <mxCell id="RWj5NL5v489ZXOZt_Zdf-71" style="rounded=0;orthogonalLoop=1;jettySize=auto;html=1;exitX=0;exitY=0.5;exitDx=0;exitDy=0;edgeStyle=orthogonalEdgeStyle;endArrow=none;endFill=0;entryX=0.932;entryY=0.019;entryDx=0;entryDy=0;entryPerimeter=0;" parent="1" source="RWj5NL5v489ZXOZt_Zdf-70" target="6GUqICWd9C8v-F9M-gl0-1" edge="1">
          <mxGeometry relative="1" as="geometry">
            <mxPoint x="400" y="80" as="sourcePoint" />
            <mxPoint x="250" y="140" as="targetPoint" />
            <Array as="points">
              <mxPoint x="202" y="60" />
            </Array>
          </mxGeometry>
        </mxCell>
        <mxCell id="RWj5NL5v489ZXOZt_Zdf-72" style="rounded=0;orthogonalLoop=1;jettySize=auto;html=1;exitX=1;exitY=0.5;exitDx=0;exitDy=0;entryX=0.5;entryY=1;entryDx=0;entryDy=0;endArrow=none;endFill=0;edgeStyle=orthogonalEdgeStyle;" parent="1" source="RWj5NL5v489ZXOZt_Zdf-70" target="RWj5NL5v489ZXOZt_Zdf-67" edge="1">
          <mxGeometry relative="1" as="geometry" />
        </mxCell>
        <mxCell id="RWj5NL5v489ZXOZt_Zdf-70" value="frequenta" style="rhombus;whiteSpace=wrap;html=1;" parent="1" vertex="1">
          <mxGeometry x="370" y="20" width="80" height="80" as="geometry" />
        </mxCell>
        <mxCell id="RWj5NL5v489ZXOZt_Zdf-76" value="ISCRIZIONE" style="whiteSpace=wrap;html=1;" parent="1" vertex="1">
          <mxGeometry x="970" y="-60" width="120" height="60" as="geometry" />
        </mxCell>
        <mxCell id="RWj5NL5v489ZXOZt_Zdf-78" style="edgeStyle=orthogonalEdgeStyle;rounded=0;orthogonalLoop=1;jettySize=auto;html=1;entryX=0.5;entryY=1;entryDx=0;entryDy=0;endArrow=none;endFill=0;" parent="1" source="RWj5NL5v489ZXOZt_Zdf-77" target="RWj5NL5v489ZXOZt_Zdf-76" edge="1">
          <mxGeometry relative="1" as="geometry" />
        </mxCell>
        <mxCell id="RWj5NL5v489ZXOZt_Zdf-79" style="edgeStyle=orthogonalEdgeStyle;rounded=0;orthogonalLoop=1;jettySize=auto;html=1;endArrow=none;endFill=0;entryX=0.664;entryY=0.015;entryDx=0;entryDy=0;entryPerimeter=0;" parent="1" source="RWj5NL5v489ZXOZt_Zdf-77" target="RWj5NL5v489ZXOZt_Zdf-37" edge="1">
          <mxGeometry relative="1" as="geometry">
            <mxPoint x="1030" y="580" as="targetPoint" />
          </mxGeometry>
        </mxCell>
        <mxCell id="RWj5NL5v489ZXOZt_Zdf-77" value="relativa&lt;br&gt;\/" style="rhombus;whiteSpace=wrap;html=1;" parent="1" vertex="1">
          <mxGeometry x="990" y="170" width="80" height="80" as="geometry" />
        </mxCell>
        <mxCell id="RWj5NL5v489ZXOZt_Zdf-81" style="edgeStyle=orthogonalEdgeStyle;rounded=0;orthogonalLoop=1;jettySize=auto;html=1;entryX=1;entryY=0.5;entryDx=0;entryDy=0;endArrow=none;endFill=0;" parent="1" source="RWj5NL5v489ZXOZt_Zdf-80" target="RWj5NL5v489ZXOZt_Zdf-67" edge="1">
          <mxGeometry relative="1" as="geometry" />
        </mxCell>
        <mxCell id="RWj5NL5v489ZXOZt_Zdf-82" style="edgeStyle=orthogonalEdgeStyle;rounded=0;orthogonalLoop=1;jettySize=auto;html=1;entryX=0;entryY=0.5;entryDx=0;entryDy=0;endArrow=none;endFill=0;" parent="1" source="RWj5NL5v489ZXOZt_Zdf-80" target="RWj5NL5v489ZXOZt_Zdf-76" edge="1">
          <mxGeometry relative="1" as="geometry" />
        </mxCell>
        <mxCell id="RWj5NL5v489ZXOZt_Zdf-80" value="effetua &amp;gt;" style="rhombus;whiteSpace=wrap;html=1;" parent="1" vertex="1">
          <mxGeometry x="800" y="-70" width="80" height="80" as="geometry" />
        </mxCell>
        <mxCell id="cDWD59vqWW8E9XmD5x85-145" style="edgeStyle=orthogonalEdgeStyle;rounded=0;orthogonalLoop=1;jettySize=auto;html=1;exitX=0;exitY=0.25;exitDx=0;exitDy=0;endArrow=oval;endFill=0;" parent="1" source="RWj5NL5v489ZXOZt_Zdf-84" target="cDWD59vqWW8E9XmD5x85-142" edge="1">
          <mxGeometry relative="1" as="geometry" />
        </mxCell>
        <mxCell id="cDWD59vqWW8E9XmD5x85-146" style="edgeStyle=orthogonalEdgeStyle;rounded=0;orthogonalLoop=1;jettySize=auto;html=1;exitX=0;exitY=0.75;exitDx=0;exitDy=0;endArrow=oval;endFill=0;" parent="1" source="RWj5NL5v489ZXOZt_Zdf-84" target="cDWD59vqWW8E9XmD5x85-144" edge="1">
          <mxGeometry relative="1" as="geometry" />
        </mxCell>
        <mxCell id="cDWD59vqWW8E9XmD5x85-147" style="edgeStyle=orthogonalEdgeStyle;rounded=0;orthogonalLoop=1;jettySize=auto;html=1;exitX=0;exitY=0.5;exitDx=0;exitDy=0;endArrow=oval;endFill=0;" parent="1" source="RWj5NL5v489ZXOZt_Zdf-84" target="cDWD59vqWW8E9XmD5x85-143" edge="1">
          <mxGeometry relative="1" as="geometry" />
        </mxCell>
        <mxCell id="RWj5NL5v489ZXOZt_Zdf-84" value="CERTIFICATO MEDICO" style="whiteSpace=wrap;html=1;" parent="1" vertex="1">
          <mxGeometry x="410" y="-350" width="120" height="60" as="geometry" />
        </mxCell>
        <mxCell id="RWj5NL5v489ZXOZt_Zdf-91" style="edgeStyle=orthogonalEdgeStyle;rounded=0;orthogonalLoop=1;jettySize=auto;html=1;exitX=1;exitY=1;exitDx=0;exitDy=0;entryX=0.25;entryY=0;entryDx=0;entryDy=0;endArrow=none;endFill=0;" parent="1" source="RWj5NL5v489ZXOZt_Zdf-85" target="RWj5NL5v489ZXOZt_Zdf-67" edge="1">
          <mxGeometry relative="1" as="geometry" />
        </mxCell>
        <mxCell id="RWj5NL5v489ZXOZt_Zdf-92" style="edgeStyle=orthogonalEdgeStyle;rounded=0;orthogonalLoop=1;jettySize=auto;html=1;exitX=0;exitY=0;exitDx=0;exitDy=0;entryX=0.5;entryY=1;entryDx=0;entryDy=0;endArrow=none;endFill=0;" parent="1" source="RWj5NL5v489ZXOZt_Zdf-85" target="RWj5NL5v489ZXOZt_Zdf-84" edge="1">
          <mxGeometry relative="1" as="geometry" />
        </mxCell>
        <mxCell id="RWj5NL5v489ZXOZt_Zdf-85" value="presenta" style="rhombus;whiteSpace=wrap;html=1;" parent="1" vertex="1">
          <mxGeometry x="490" y="-210" width="80" height="80" as="geometry" />
        </mxCell>
        <mxCell id="RWj5NL5v489ZXOZt_Zdf-89" style="edgeStyle=orthogonalEdgeStyle;rounded=0;orthogonalLoop=1;jettySize=auto;html=1;exitX=1;exitY=0;exitDx=0;exitDy=0;entryX=0.5;entryY=1;entryDx=0;entryDy=0;endArrow=none;endFill=0;" parent="1" source="RWj5NL5v489ZXOZt_Zdf-86" target="RWj5NL5v489ZXOZt_Zdf-88" edge="1">
          <mxGeometry relative="1" as="geometry" />
        </mxCell>
        <mxCell id="RWj5NL5v489ZXOZt_Zdf-90" style="edgeStyle=orthogonalEdgeStyle;rounded=0;orthogonalLoop=1;jettySize=auto;html=1;exitX=0;exitY=1;exitDx=0;exitDy=0;entryX=0.75;entryY=0;entryDx=0;entryDy=0;endArrow=none;endFill=0;" parent="1" source="RWj5NL5v489ZXOZt_Zdf-86" target="RWj5NL5v489ZXOZt_Zdf-67" edge="1">
          <mxGeometry relative="1" as="geometry" />
        </mxCell>
        <mxCell id="RWj5NL5v489ZXOZt_Zdf-86" value="accompagna" style="rhombus;whiteSpace=wrap;html=1;" parent="1" vertex="1">
          <mxGeometry x="750" y="-210" width="80" height="80" as="geometry" />
        </mxCell>
        <mxCell id="cDWD59vqWW8E9XmD5x85-138" style="edgeStyle=orthogonalEdgeStyle;rounded=0;orthogonalLoop=1;jettySize=auto;html=1;exitX=1;exitY=0.25;exitDx=0;exitDy=0;endArrow=oval;endFill=0;" parent="1" source="RWj5NL5v489ZXOZt_Zdf-88" target="cDWD59vqWW8E9XmD5x85-134" edge="1">
          <mxGeometry relative="1" as="geometry">
            <Array as="points">
              <mxPoint x="940" y="-335" />
              <mxPoint x="940" y="-380" />
            </Array>
          </mxGeometry>
        </mxCell>
        <mxCell id="cDWD59vqWW8E9XmD5x85-139" style="edgeStyle=orthogonalEdgeStyle;rounded=0;orthogonalLoop=1;jettySize=auto;html=1;exitX=1;exitY=0.5;exitDx=0;exitDy=0;endArrow=oval;endFill=0;" parent="1" source="RWj5NL5v489ZXOZt_Zdf-88" target="cDWD59vqWW8E9XmD5x85-135" edge="1">
          <mxGeometry relative="1" as="geometry" />
        </mxCell>
        <mxCell id="cDWD59vqWW8E9XmD5x85-140" style="edgeStyle=orthogonalEdgeStyle;rounded=0;orthogonalLoop=1;jettySize=auto;html=1;exitX=1;exitY=0.5;exitDx=0;exitDy=0;endArrow=oval;endFill=0;" parent="1" source="RWj5NL5v489ZXOZt_Zdf-88" target="cDWD59vqWW8E9XmD5x85-136" edge="1">
          <mxGeometry relative="1" as="geometry">
            <Array as="points">
              <mxPoint x="960" y="-320" />
              <mxPoint x="960" y="-305" />
            </Array>
          </mxGeometry>
        </mxCell>
        <mxCell id="cDWD59vqWW8E9XmD5x85-141" style="edgeStyle=orthogonalEdgeStyle;rounded=0;orthogonalLoop=1;jettySize=auto;html=1;exitX=1;exitY=0.75;exitDx=0;exitDy=0;endArrow=oval;endFill=0;" parent="1" source="RWj5NL5v489ZXOZt_Zdf-88" target="cDWD59vqWW8E9XmD5x85-137" edge="1">
          <mxGeometry relative="1" as="geometry">
            <Array as="points">
              <mxPoint x="940" y="-305" />
              <mxPoint x="940" y="-265" />
            </Array>
          </mxGeometry>
        </mxCell>
        <mxCell id="RWj5NL5v489ZXOZt_Zdf-88" value="GENITORI" style="whiteSpace=wrap;html=1;" parent="1" vertex="1">
          <mxGeometry x="805" y="-350" width="120" height="60" as="geometry" />
        </mxCell>
        <mxCell id="RWj5NL5v489ZXOZt_Zdf-96" style="edgeStyle=orthogonalEdgeStyle;rounded=0;orthogonalLoop=1;jettySize=auto;html=1;entryX=0.5;entryY=1;entryDx=0;entryDy=0;endArrow=none;endFill=0;startArrow=oval;startFill=0;" parent="1" source="RWj5NL5v489ZXOZt_Zdf-95" target="RWj5NL5v489ZXOZt_Zdf-45" edge="1">
          <mxGeometry relative="1" as="geometry" />
        </mxCell>
        <mxCell id="RWj5NL5v489ZXOZt_Zdf-95" value="Data" style="text;html=1;align=center;verticalAlign=middle;resizable=0;points=[];autosize=1;strokeColor=none;fillColor=none;" parent="1" vertex="1">
          <mxGeometry x="725" y="940" width="50" height="30" as="geometry" />
        </mxCell>
        <mxCell id="RWj5NL5v489ZXOZt_Zdf-98" style="edgeStyle=orthogonalEdgeStyle;rounded=0;orthogonalLoop=1;jettySize=auto;html=1;entryX=0.5;entryY=1;entryDx=0;entryDy=0;endArrow=none;endFill=0;startArrow=oval;startFill=1;" parent="1" source="RWj5NL5v489ZXOZt_Zdf-97" target="RWj5NL5v489ZXOZt_Zdf-14" edge="1">
          <mxGeometry relative="1" as="geometry" />
        </mxCell>
        <mxCell id="RWj5NL5v489ZXOZt_Zdf-97" value="Telefono" style="text;html=1;align=center;verticalAlign=middle;resizable=0;points=[];autosize=1;strokeColor=none;fillColor=none;" parent="1" vertex="1">
          <mxGeometry x="115" y="890" width="70" height="30" as="geometry" />
        </mxCell>
        <mxCell id="cDWD59vqWW8E9XmD5x85-4" style="edgeStyle=orthogonalEdgeStyle;orthogonalLoop=1;jettySize=auto;html=1;exitX=1;exitY=0.5;exitDx=0;exitDy=0;entryX=0.025;entryY=0.492;entryDx=0;entryDy=0;entryPerimeter=0;rounded=0;endArrow=oval;endFill=0;strokeColor=default;dashed=1;" parent="1" target="LbghogEhIRzj0ne3dYNB-20" edge="1">
          <mxGeometry relative="1" as="geometry">
            <mxPoint x="520" y="410" as="sourcePoint" />
          </mxGeometry>
        </mxCell>
        <mxCell id="cDWD59vqWW8E9XmD5x85-5" style="edgeStyle=orthogonalEdgeStyle;rounded=0;orthogonalLoop=1;jettySize=auto;html=1;exitX=1;exitY=0.25;exitDx=0;exitDy=0;entryX=0;entryY=0.502;entryDx=0;entryDy=0;entryPerimeter=0;endArrow=oval;endFill=0;" parent="1" target="LbghogEhIRzj0ne3dYNB-18" edge="1">
          <mxGeometry relative="1" as="geometry">
            <mxPoint x="520" y="395" as="sourcePoint" />
          </mxGeometry>
        </mxCell>
        <mxCell id="cDWD59vqWW8E9XmD5x85-8" style="edgeStyle=orthogonalEdgeStyle;rounded=0;orthogonalLoop=1;jettySize=auto;html=1;exitX=1;exitY=0.25;exitDx=0;exitDy=0;entryX=-0.086;entryY=0.527;entryDx=0;entryDy=0;entryPerimeter=0;endArrow=oval;endFill=0;" parent="1" source="LbghogEhIRzj0ne3dYNB-7" target="LbghogEhIRzj0ne3dYNB-22" edge="1">
          <mxGeometry relative="1" as="geometry" />
        </mxCell>
        <mxCell id="LbghogEhIRzj0ne3dYNB-7" value="CONTRATTO" style="rounded=0;whiteSpace=wrap;html=1;" parent="1" vertex="1">
          <mxGeometry x="400" y="359" width="120" height="60" as="geometry" />
        </mxCell>
        <mxCell id="LbghogEhIRzj0ne3dYNB-11" style="edgeStyle=orthogonalEdgeStyle;rounded=0;orthogonalLoop=1;jettySize=auto;html=1;entryX=0.5;entryY=1;entryDx=0;entryDy=0;endArrow=none;endFill=0;" parent="1" source="LbghogEhIRzj0ne3dYNB-10" target="LbghogEhIRzj0ne3dYNB-7" edge="1">
          <mxGeometry relative="1" as="geometry" />
        </mxCell>
        <mxCell id="cDWD59vqWW8E9XmD5x85-3" style="edgeStyle=orthogonalEdgeStyle;rounded=0;orthogonalLoop=1;jettySize=auto;html=1;exitX=0.5;exitY=1;exitDx=0;exitDy=0;entryX=0.5;entryY=0;entryDx=0;entryDy=0;strokeColor=default;endArrow=none;endFill=0;" parent="1" source="LbghogEhIRzj0ne3dYNB-10" target="RWj5NL5v489ZXOZt_Zdf-8" edge="1">
          <mxGeometry relative="1" as="geometry" />
        </mxCell>
        <mxCell id="LbghogEhIRzj0ne3dYNB-10" value="/\&lt;br&gt;&lt;div&gt;ha&lt;/div&gt;" style="rhombus;whiteSpace=wrap;html=1;" parent="1" vertex="1">
          <mxGeometry x="420" y="450" width="80" height="80" as="geometry" />
        </mxCell>
        <mxCell id="LbghogEhIRzj0ne3dYNB-14" value="1,1" style="text;html=1;align=center;verticalAlign=middle;resizable=0;points=[];autosize=1;strokeColor=none;fillColor=none;" parent="1" vertex="1">
          <mxGeometry x="150" y="260" width="40" height="30" as="geometry" />
        </mxCell>
        <mxCell id="LbghogEhIRzj0ne3dYNB-15" value="1,1" style="text;html=1;align=center;verticalAlign=middle;resizable=0;points=[];autosize=1;strokeColor=none;fillColor=none;" parent="1" vertex="1">
          <mxGeometry x="480" y="530" width="40" height="30" as="geometry" />
        </mxCell>
        <mxCell id="LbghogEhIRzj0ne3dYNB-16" value="0,N" style="text;html=1;align=center;verticalAlign=middle;resizable=0;points=[];autosize=1;strokeColor=none;fillColor=none;" parent="1" vertex="1">
          <mxGeometry x="350" y="349" width="40" height="30" as="geometry" />
        </mxCell>
        <mxCell id="LbghogEhIRzj0ne3dYNB-17" value="0,N" style="text;html=1;align=center;verticalAlign=middle;resizable=0;points=[];autosize=1;strokeColor=none;fillColor=none;" parent="1" vertex="1">
          <mxGeometry x="400" y="420" width="40" height="30" as="geometry" />
        </mxCell>
        <mxCell id="LbghogEhIRzj0ne3dYNB-18" value="inizio" style="text;html=1;align=center;verticalAlign=middle;resizable=0;points=[];autosize=1;strokeColor=none;fillColor=none;" parent="1" vertex="1">
          <mxGeometry x="570" y="380" width="50" height="30" as="geometry" />
        </mxCell>
        <mxCell id="LbghogEhIRzj0ne3dYNB-20" value="fine" style="text;html=1;align=center;verticalAlign=middle;resizable=0;points=[];autosize=1;strokeColor=none;fillColor=none;" parent="1" vertex="1">
          <mxGeometry x="575" y="405" width="40" height="30" as="geometry" />
        </mxCell>
        <mxCell id="LbghogEhIRzj0ne3dYNB-22" value="nferie" style="text;html=1;align=center;verticalAlign=middle;resizable=0;points=[];autosize=1;strokeColor=none;fillColor=none;" parent="1" vertex="1">
          <mxGeometry x="565" y="350" width="50" height="30" as="geometry" />
        </mxCell>
        <mxCell id="cDWD59vqWW8E9XmD5x85-9" style="edgeStyle=orthogonalEdgeStyle;rounded=0;orthogonalLoop=1;jettySize=auto;html=1;exitX=0.5;exitY=1;exitDx=0;exitDy=0;entryX=0.5;entryY=0;entryDx=0;entryDy=0;endArrow=none;endFill=0;" parent="1" source="LbghogEhIRzj0ne3dYNB-24" target="RWj5NL5v489ZXOZt_Zdf-23" edge="1">
          <mxGeometry relative="1" as="geometry" />
        </mxCell>
        <mxCell id="cDWD59vqWW8E9XmD5x85-13" style="edgeStyle=orthogonalEdgeStyle;rounded=0;orthogonalLoop=1;jettySize=auto;html=1;exitX=1;exitY=0.5;exitDx=0;exitDy=0;entryX=0;entryY=0.5;entryDx=0;entryDy=0;endArrow=none;endFill=0;" parent="1" source="LbghogEhIRzj0ne3dYNB-24" target="cDWD59vqWW8E9XmD5x85-11" edge="1">
          <mxGeometry relative="1" as="geometry" />
        </mxCell>
        <mxCell id="cDWD59vqWW8E9XmD5x85-28" style="edgeStyle=orthogonalEdgeStyle;rounded=0;orthogonalLoop=1;jettySize=auto;html=1;exitX=0.25;exitY=0;exitDx=0;exitDy=0;entryX=0.489;entryY=1.027;entryDx=0;entryDy=0;entryPerimeter=0;endArrow=oval;endFill=0;" parent="1" source="LbghogEhIRzj0ne3dYNB-24" target="cDWD59vqWW8E9XmD5x85-25" edge="1">
          <mxGeometry relative="1" as="geometry" />
        </mxCell>
        <mxCell id="cDWD59vqWW8E9XmD5x85-30" style="edgeStyle=orthogonalEdgeStyle;rounded=0;orthogonalLoop=1;jettySize=auto;html=1;exitX=0.75;exitY=0;exitDx=0;exitDy=0;entryX=0.462;entryY=1.018;entryDx=0;entryDy=0;entryPerimeter=0;endArrow=oval;endFill=0;" parent="1" source="LbghogEhIRzj0ne3dYNB-24" target="cDWD59vqWW8E9XmD5x85-27" edge="1">
          <mxGeometry relative="1" as="geometry" />
        </mxCell>
        <mxCell id="cDWD59vqWW8E9XmD5x85-31" style="edgeStyle=orthogonalEdgeStyle;rounded=0;orthogonalLoop=1;jettySize=auto;html=1;exitX=0.5;exitY=0;exitDx=0;exitDy=0;entryX=0.517;entryY=1.184;entryDx=0;entryDy=0;entryPerimeter=0;endArrow=oval;endFill=0;" parent="1" source="LbghogEhIRzj0ne3dYNB-24" target="cDWD59vqWW8E9XmD5x85-26" edge="1">
          <mxGeometry relative="1" as="geometry" />
        </mxCell>
        <mxCell id="cDWD59vqWW8E9XmD5x85-32" style="edgeStyle=orthogonalEdgeStyle;rounded=0;orthogonalLoop=1;jettySize=auto;html=1;exitX=0.25;exitY=0;exitDx=0;exitDy=0;entryX=0.579;entryY=1.175;entryDx=0;entryDy=0;entryPerimeter=0;endArrow=oval;endFill=0;" parent="1" source="LbghogEhIRzj0ne3dYNB-24" target="cDWD59vqWW8E9XmD5x85-24" edge="1">
          <mxGeometry relative="1" as="geometry">
            <Array as="points">
              <mxPoint x="100" y="570" />
              <mxPoint x="100" y="550" />
              <mxPoint x="49" y="550" />
            </Array>
          </mxGeometry>
        </mxCell>
        <mxCell id="LbghogEhIRzj0ne3dYNB-24" value="PERSONALE" style="whiteSpace=wrap;html=1;" parent="1" vertex="1">
          <mxGeometry x="90" y="570" width="120" height="60" as="geometry" />
        </mxCell>
        <mxCell id="cDWD59vqWW8E9XmD5x85-14" style="edgeStyle=orthogonalEdgeStyle;rounded=0;orthogonalLoop=1;jettySize=auto;html=1;exitX=1;exitY=0.5;exitDx=0;exitDy=0;entryX=0;entryY=0.5;entryDx=0;entryDy=0;endArrow=none;endFill=0;" parent="1" source="cDWD59vqWW8E9XmD5x85-11" target="RWj5NL5v489ZXOZt_Zdf-8" edge="1">
          <mxGeometry relative="1" as="geometry" />
        </mxCell>
        <mxCell id="cDWD59vqWW8E9XmD5x85-11" value="è &amp;gt;" style="rhombus;whiteSpace=wrap;html=1;" parent="1" vertex="1">
          <mxGeometry x="270" y="560" width="80" height="80" as="geometry" />
        </mxCell>
        <mxCell id="cDWD59vqWW8E9XmD5x85-15" style="edgeStyle=orthogonalEdgeStyle;rounded=0;orthogonalLoop=1;jettySize=auto;html=1;exitX=1;exitY=0.5;exitDx=0;exitDy=0;entryX=0;entryY=0.5;entryDx=0;entryDy=0;endArrow=none;endFill=0;" parent="1" source="cDWD59vqWW8E9XmD5x85-12" target="LbghogEhIRzj0ne3dYNB-24" edge="1">
          <mxGeometry relative="1" as="geometry" />
        </mxCell>
        <mxCell id="cDWD59vqWW8E9XmD5x85-12" value="&amp;lt; è" style="rhombus;whiteSpace=wrap;html=1;" parent="1" vertex="1">
          <mxGeometry x="-70" y="560" width="80" height="80" as="geometry" />
        </mxCell>
        <mxCell id="cDWD59vqWW8E9XmD5x85-17" value="0, 1" style="text;html=1;align=center;verticalAlign=middle;resizable=0;points=[];autosize=1;strokeColor=none;fillColor=none;" parent="1" vertex="1">
          <mxGeometry x="-150" y="570" width="40" height="30" as="geometry" />
        </mxCell>
        <mxCell id="cDWD59vqWW8E9XmD5x85-19" value="1, 1" style="text;html=1;align=center;verticalAlign=middle;resizable=0;points=[];autosize=1;strokeColor=none;fillColor=none;" parent="1" vertex="1">
          <mxGeometry x="50" y="570" width="40" height="30" as="geometry" />
        </mxCell>
        <mxCell id="cDWD59vqWW8E9XmD5x85-20" value="1, 1" style="text;html=1;align=center;verticalAlign=middle;resizable=0;points=[];autosize=1;strokeColor=none;fillColor=none;" parent="1" vertex="1">
          <mxGeometry x="210" y="570" width="40" height="30" as="geometry" />
        </mxCell>
        <mxCell id="cDWD59vqWW8E9XmD5x85-21" value="0, 1" style="text;html=1;align=center;verticalAlign=middle;resizable=0;points=[];autosize=1;strokeColor=none;fillColor=none;" parent="1" vertex="1">
          <mxGeometry x="360" y="570" width="40" height="30" as="geometry" />
        </mxCell>
        <mxCell id="cDWD59vqWW8E9XmD5x85-24" value="Nome" style="text;html=1;align=center;verticalAlign=middle;resizable=0;points=[];autosize=1;strokeColor=none;fillColor=none;" parent="1" vertex="1">
          <mxGeometry x="20" y="500" width="50" height="30" as="geometry" />
        </mxCell>
        <mxCell id="cDWD59vqWW8E9XmD5x85-25" value="Cognome" style="text;html=1;align=center;verticalAlign=middle;resizable=0;points=[];autosize=1;strokeColor=none;fillColor=none;" parent="1" vertex="1">
          <mxGeometry x="70" y="475" width="70" height="30" as="geometry" />
        </mxCell>
        <mxCell id="cDWD59vqWW8E9XmD5x85-26" value="CodFis" style="text;html=1;align=center;verticalAlign=middle;resizable=0;points=[];autosize=1;strokeColor=none;fillColor=none;" parent="1" vertex="1">
          <mxGeometry x="145" y="475" width="60" height="30" as="geometry" />
        </mxCell>
        <mxCell id="cDWD59vqWW8E9XmD5x85-27" value="&lt;div&gt;DataNascita&lt;/div&gt;" style="text;html=1;align=center;verticalAlign=middle;resizable=0;points=[];autosize=1;strokeColor=none;fillColor=none;" parent="1" vertex="1">
          <mxGeometry x="205" y="500" width="90" height="30" as="geometry" />
        </mxCell>
        <mxCell id="cDWD59vqWW8E9XmD5x85-34" value="1, 1" style="text;html=1;align=center;verticalAlign=middle;resizable=0;points=[];autosize=1;strokeColor=none;fillColor=none;" parent="1" vertex="1">
          <mxGeometry x="210" y="250" width="40" height="30" as="geometry" />
        </mxCell>
        <mxCell id="cDWD59vqWW8E9XmD5x85-35" value="0, N" style="text;html=1;align=center;verticalAlign=middle;resizable=0;points=[];autosize=1;strokeColor=none;fillColor=none;" parent="1" vertex="1">
          <mxGeometry x="925" y="540" width="40" height="30" as="geometry" />
        </mxCell>
        <mxCell id="cDWD59vqWW8E9XmD5x85-37" value="1, 1" style="text;html=1;align=center;verticalAlign=middle;resizable=0;points=[];autosize=1;strokeColor=none;fillColor=none;" parent="1" vertex="1">
          <mxGeometry x="850" y="260" width="40" height="30" as="geometry" />
        </mxCell>
        <mxCell id="cDWD59vqWW8E9XmD5x85-38" value="0, N" style="text;html=1;align=center;verticalAlign=middle;resizable=0;points=[];autosize=1;strokeColor=none;fillColor=none;" parent="1" vertex="1">
          <mxGeometry x="980" y="540" width="40" height="30" as="geometry" />
        </mxCell>
        <mxCell id="cDWD59vqWW8E9XmD5x85-40" value="1, 1" style="text;html=1;align=center;verticalAlign=middle;resizable=0;points=[];autosize=1;strokeColor=none;fillColor=none;" parent="1" vertex="1">
          <mxGeometry x="1030" y="540" width="40" height="30" as="geometry" />
        </mxCell>
        <mxCell id="cDWD59vqWW8E9XmD5x85-41" value="&lt;div&gt;0, N&lt;/div&gt;" style="text;html=1;align=center;verticalAlign=middle;resizable=0;points=[];autosize=1;strokeColor=none;fillColor=none;" parent="1" vertex="1">
          <mxGeometry x="1030" width="40" height="30" as="geometry" />
        </mxCell>
        <mxCell id="cDWD59vqWW8E9XmD5x85-42" value="0, N" style="text;html=1;align=center;verticalAlign=middle;resizable=0;points=[];autosize=1;strokeColor=none;fillColor=none;" parent="1" vertex="1">
          <mxGeometry x="920" y="-30" width="40" height="30" as="geometry" />
        </mxCell>
        <mxCell id="cDWD59vqWW8E9XmD5x85-43" value="1, 1" style="text;html=1;align=center;verticalAlign=middle;resizable=0;points=[];autosize=1;strokeColor=none;fillColor=none;" parent="1" vertex="1">
          <mxGeometry x="710" y="-30" width="40" height="30" as="geometry" />
        </mxCell>
        <mxCell id="cDWD59vqWW8E9XmD5x85-44" value="1, 1" style="text;html=1;align=center;verticalAlign=middle;resizable=0;points=[];autosize=1;strokeColor=none;fillColor=none;" parent="1" vertex="1">
          <mxGeometry x="165" y="170" width="40" height="30" as="geometry" />
        </mxCell>
        <mxCell id="cDWD59vqWW8E9XmD5x85-45" value="0, N" style="text;html=1;align=center;verticalAlign=middle;resizable=0;points=[];autosize=1;strokeColor=none;fillColor=none;" parent="1" vertex="1">
          <mxGeometry x="610" width="40" height="30" as="geometry" />
        </mxCell>
        <mxCell id="cDWD59vqWW8E9XmD5x85-47" value="Nome" style="text;html=1;align=center;verticalAlign=middle;resizable=0;points=[];autosize=1;strokeColor=none;fillColor=none;" parent="1" vertex="1">
          <mxGeometry x="20" y="160" width="50" height="30" as="geometry" />
        </mxCell>
        <mxCell id="cDWD59vqWW8E9XmD5x85-48" value="1, 1" style="text;html=1;align=center;verticalAlign=middle;resizable=0;points=[];autosize=1;strokeColor=none;fillColor=none;" parent="1" vertex="1">
          <mxGeometry x="110" y="260" width="40" height="30" as="geometry" />
        </mxCell>
        <mxCell id="cDWD59vqWW8E9XmD5x85-49" value="1, 1" style="text;html=1;align=center;verticalAlign=middle;resizable=0;points=[];autosize=1;strokeColor=none;fillColor=none;" parent="1" vertex="1">
          <mxGeometry x="-210" y="540" width="40" height="30" as="geometry" />
        </mxCell>
        <mxCell id="cDWD59vqWW8E9XmD5x85-62" style="edgeStyle=orthogonalEdgeStyle;rounded=0;orthogonalLoop=1;jettySize=auto;html=1;endArrow=oval;endFill=0;" parent="1" source="cDWD59vqWW8E9XmD5x85-51" target="cDWD59vqWW8E9XmD5x85-53" edge="1">
          <mxGeometry relative="1" as="geometry" />
        </mxCell>
        <mxCell id="cDWD59vqWW8E9XmD5x85-63" style="edgeStyle=orthogonalEdgeStyle;rounded=0;orthogonalLoop=1;jettySize=auto;html=1;endArrow=oval;endFill=0;" parent="1" source="cDWD59vqWW8E9XmD5x85-51" target="cDWD59vqWW8E9XmD5x85-52" edge="1">
          <mxGeometry relative="1" as="geometry" />
        </mxCell>
        <mxCell id="cDWD59vqWW8E9XmD5x85-51" value="Indirizzo" style="text;html=1;align=center;verticalAlign=middle;resizable=0;points=[];autosize=1;strokeColor=none;fillColor=none;" parent="1" vertex="1">
          <mxGeometry x="-65" y="190" width="70" height="30" as="geometry" />
        </mxCell>
        <mxCell id="cDWD59vqWW8E9XmD5x85-52" value="Via" style="text;html=1;align=center;verticalAlign=middle;resizable=0;points=[];autosize=1;strokeColor=none;fillColor=none;" parent="1" vertex="1">
          <mxGeometry x="-150" y="215" width="40" height="30" as="geometry" />
        </mxCell>
        <mxCell id="cDWD59vqWW8E9XmD5x85-53" value="&lt;div&gt;NumeroCivico&lt;/div&gt;" style="text;html=1;align=center;verticalAlign=middle;resizable=0;points=[];autosize=1;strokeColor=none;fillColor=none;" parent="1" vertex="1">
          <mxGeometry x="-210" y="170" width="100" height="30" as="geometry" />
        </mxCell>
        <mxCell id="cDWD59vqWW8E9XmD5x85-54" value="Apertura" style="text;html=1;align=center;verticalAlign=middle;resizable=0;points=[];autosize=1;strokeColor=none;fillColor=none;" parent="1" vertex="1">
          <mxGeometry x="-65" y="230" width="70" height="30" as="geometry" />
        </mxCell>
        <mxCell id="cDWD59vqWW8E9XmD5x85-55" value="&lt;div&gt;Chiusura&lt;/div&gt;" style="text;html=1;align=center;verticalAlign=middle;resizable=0;points=[];autosize=1;strokeColor=none;fillColor=none;" parent="1" vertex="1">
          <mxGeometry x="-70" y="270" width="70" height="30" as="geometry" />
        </mxCell>
        <mxCell id="cDWD59vqWW8E9XmD5x85-64" value="&amp;lt; è diretta" style="rhombus;whiteSpace=wrap;html=1;" parent="1" vertex="1">
          <mxGeometry x="-10" y="310" width="80" height="80" as="geometry" />
        </mxCell>
        <mxCell id="cDWD59vqWW8E9XmD5x85-67" value="1, 1" style="text;html=1;align=center;verticalAlign=middle;resizable=0;points=[];autosize=1;strokeColor=none;fillColor=none;" parent="1" vertex="1">
          <mxGeometry x="-150" y="349" width="40" height="30" as="geometry" />
        </mxCell>
        <mxCell id="cDWD59vqWW8E9XmD5x85-68" value="1, N" style="text;html=1;align=center;verticalAlign=middle;resizable=0;points=[];autosize=1;strokeColor=none;fillColor=none;" parent="1" vertex="1">
          <mxGeometry x="-210" y="379" width="40" height="30" as="geometry" />
        </mxCell>
        <mxCell id="cDWD59vqWW8E9XmD5x85-70" value="corsie" style="text;html=1;align=center;verticalAlign=middle;resizable=0;points=[];autosize=1;strokeColor=none;fillColor=none;" parent="1" vertex="1">
          <mxGeometry x="730" y="130" width="60" height="30" as="geometry" />
        </mxCell>
        <mxCell id="cDWD59vqWW8E9XmD5x85-71" value="apertura" style="text;html=1;align=center;verticalAlign=middle;resizable=0;points=[];autosize=1;strokeColor=none;fillColor=none;" parent="1" vertex="1">
          <mxGeometry x="775" y="88" width="70" height="30" as="geometry" />
        </mxCell>
        <mxCell id="cDWD59vqWW8E9XmD5x85-72" value="chiusura" style="text;html=1;align=center;verticalAlign=middle;resizable=0;points=[];autosize=1;strokeColor=none;fillColor=none;" parent="1" vertex="1">
          <mxGeometry x="845" y="88" width="70" height="30" as="geometry" />
        </mxCell>
        <mxCell id="cDWD59vqWW8E9XmD5x85-73" value="tipologia" style="text;html=1;align=center;verticalAlign=middle;resizable=0;points=[];autosize=1;strokeColor=none;fillColor=none;" parent="1" vertex="1">
          <mxGeometry x="895" y="130" width="70" height="30" as="geometry" />
        </mxCell>
        <mxCell id="cDWD59vqWW8E9XmD5x85-84" value="Tipo" style="text;html=1;align=center;verticalAlign=middle;resizable=0;points=[];autosize=1;strokeColor=none;fillColor=none;" parent="1" vertex="1">
          <mxGeometry x="435" y="950" width="50" height="30" as="geometry" />
        </mxCell>
        <mxCell id="cDWD59vqWW8E9XmD5x85-86" value="comunale" style="text;html=1;align=center;verticalAlign=middle;resizable=0;points=[];autosize=1;strokeColor=none;fillColor=none;" parent="1" vertex="1">
          <mxGeometry x="1070" y="670" width="70" height="30" as="geometry" />
        </mxCell>
        <mxCell id="cDWD59vqWW8E9XmD5x85-87" value="edizione" style="text;html=1;align=center;verticalAlign=middle;resizable=0;points=[];autosize=1;strokeColor=none;fillColor=none;" parent="1" vertex="1">
          <mxGeometry x="1070" y="640" width="70" height="30" as="geometry" />
        </mxCell>
        <mxCell id="cDWD59vqWW8E9XmD5x85-88" value="corsia" style="text;html=1;align=center;verticalAlign=middle;resizable=0;points=[];autosize=1;strokeColor=none;fillColor=none;" parent="1" vertex="1">
          <mxGeometry x="845" y="530" width="60" height="30" as="geometry" />
        </mxCell>
        <mxCell id="cDWD59vqWW8E9XmD5x85-89" value="costo" style="text;html=1;align=center;verticalAlign=middle;resizable=0;points=[];autosize=1;strokeColor=none;fillColor=none;" parent="1" vertex="1">
          <mxGeometry x="1070" y="820" width="50" height="30" as="geometry" />
        </mxCell>
        <mxCell id="cDWD59vqWW8E9XmD5x85-90" value="maxPartecipanti" style="text;html=1;align=center;verticalAlign=middle;resizable=0;points=[];autosize=1;strokeColor=none;fillColor=none;" parent="1" vertex="1">
          <mxGeometry x="1070" y="730" width="110" height="30" as="geometry" />
        </mxCell>
        <mxCell id="cDWD59vqWW8E9XmD5x85-91" value="minPartecipanti" style="text;html=1;align=center;verticalAlign=middle;resizable=0;points=[];autosize=1;strokeColor=none;fillColor=none;" parent="1" vertex="1">
          <mxGeometry x="1070" y="700" width="110" height="30" as="geometry" />
        </mxCell>
        <mxCell id="cDWD59vqWW8E9XmD5x85-92" value="oraInizio" style="text;html=1;align=center;verticalAlign=middle;resizable=0;points=[];autosize=1;strokeColor=none;fillColor=none;" parent="1" vertex="1">
          <mxGeometry x="1070" y="760" width="70" height="30" as="geometry" />
        </mxCell>
        <mxCell id="cDWD59vqWW8E9XmD5x85-93" value="durata" style="text;html=1;align=center;verticalAlign=middle;resizable=0;points=[];autosize=1;strokeColor=none;fillColor=none;" parent="1" vertex="1">
          <mxGeometry x="1070" y="790" width="60" height="30" as="geometry" />
        </mxCell>
        <mxCell id="cDWD59vqWW8E9XmD5x85-94" value="nome" style="text;html=1;align=center;verticalAlign=middle;resizable=0;points=[];autosize=1;strokeColor=none;fillColor=none;" parent="1" vertex="1">
          <mxGeometry x="1250" y="490" width="50" height="30" as="geometry" />
        </mxCell>
        <mxCell id="cDWD59vqWW8E9XmD5x85-95" value="livello" style="text;html=1;align=center;verticalAlign=middle;resizable=0;points=[];autosize=1;strokeColor=none;fillColor=none;" parent="1" vertex="1">
          <mxGeometry x="1315" y="490" width="50" height="30" as="geometry" />
        </mxCell>
        <mxCell id="cDWD59vqWW8E9XmD5x85-96" value="tipologiaVasca" style="text;html=1;align=center;verticalAlign=middle;resizable=0;points=[];autosize=1;strokeColor=none;fillColor=none;" parent="1" vertex="1">
          <mxGeometry x="1380" y="490" width="100" height="30" as="geometry" />
        </mxCell>
        <mxCell id="cDWD59vqWW8E9XmD5x85-114" value="0, N" style="text;html=1;align=center;verticalAlign=middle;resizable=0;points=[];autosize=1;strokeColor=none;fillColor=none;" parent="1" vertex="1">
          <mxGeometry x="1070" y="570" width="40" height="30" as="geometry" />
        </mxCell>
        <mxCell id="cDWD59vqWW8E9XmD5x85-115" value="1, 1" style="text;html=1;align=center;verticalAlign=middle;resizable=0;points=[];autosize=1;strokeColor=none;fillColor=none;" parent="1" vertex="1">
          <mxGeometry x="1240" y="570" width="40" height="30" as="geometry" />
        </mxCell>
        <mxCell id="cDWD59vqWW8E9XmD5x85-118" value="Tessera" style="text;html=1;align=center;verticalAlign=middle;resizable=0;points=[];autosize=1;strokeColor=none;fillColor=none;" parent="1" vertex="1">
          <mxGeometry x="465" y="-112" width="70" height="30" as="geometry" />
        </mxCell>
        <mxCell id="cDWD59vqWW8E9XmD5x85-119" value="Nome" style="text;html=1;align=center;verticalAlign=middle;resizable=0;points=[];autosize=1;strokeColor=none;fillColor=none;" parent="1" vertex="1">
          <mxGeometry x="485" y="-82" width="50" height="30" as="geometry" />
        </mxCell>
        <mxCell id="cDWD59vqWW8E9XmD5x85-120" value="Cognome" style="text;html=1;align=center;verticalAlign=middle;resizable=0;points=[];autosize=1;strokeColor=none;fillColor=none;" parent="1" vertex="1">
          <mxGeometry x="465" y="-52" width="70" height="30" as="geometry" />
        </mxCell>
        <mxCell id="cDWD59vqWW8E9XmD5x85-121" value="CodFis" style="text;html=1;align=center;verticalAlign=middle;resizable=0;points=[];autosize=1;strokeColor=none;fillColor=none;" parent="1" vertex="1">
          <mxGeometry x="475" y="-22" width="60" height="30" as="geometry" />
        </mxCell>
        <mxCell id="cDWD59vqWW8E9XmD5x85-122" value="DataNascita" style="text;html=1;align=center;verticalAlign=middle;resizable=0;points=[];autosize=1;strokeColor=none;fillColor=none;" parent="1" vertex="1">
          <mxGeometry x="445" y="10" width="90" height="30" as="geometry" />
        </mxCell>
        <mxCell id="cDWD59vqWW8E9XmD5x85-134" value="Nome" style="text;html=1;align=center;verticalAlign=middle;resizable=0;points=[];autosize=1;strokeColor=none;fillColor=none;" parent="1" vertex="1">
          <mxGeometry x="997.5" y="-400" width="50" height="30" as="geometry" />
        </mxCell>
        <mxCell id="cDWD59vqWW8E9XmD5x85-135" value="Cognome" style="text;html=1;align=center;verticalAlign=middle;resizable=0;points=[];autosize=1;strokeColor=none;fillColor=none;" parent="1" vertex="1">
          <mxGeometry x="997.5" y="-360" width="70" height="30" as="geometry" />
        </mxCell>
        <mxCell id="cDWD59vqWW8E9XmD5x85-136" value="CodFis" style="text;html=1;align=center;verticalAlign=middle;resizable=0;points=[];autosize=1;strokeColor=none;fillColor=none;" parent="1" vertex="1">
          <mxGeometry x="1000" y="-320" width="60" height="30" as="geometry" />
        </mxCell>
        <mxCell id="cDWD59vqWW8E9XmD5x85-137" value="Contatto" style="text;html=1;align=center;verticalAlign=middle;resizable=0;points=[];autosize=1;strokeColor=none;fillColor=none;" parent="1" vertex="1">
          <mxGeometry x="997.5" y="-280" width="70" height="30" as="geometry" />
        </mxCell>
        <mxCell id="cDWD59vqWW8E9XmD5x85-142" value="Medico" style="text;html=1;align=center;verticalAlign=middle;resizable=0;points=[];autosize=1;strokeColor=none;fillColor=none;" parent="1" vertex="1">
          <mxGeometry x="290" y="-360" width="60" height="30" as="geometry" />
        </mxCell>
        <mxCell id="cDWD59vqWW8E9XmD5x85-143" value="GiornoVisita" style="text;html=1;align=center;verticalAlign=middle;resizable=0;points=[];autosize=1;strokeColor=none;fillColor=none;" parent="1" vertex="1">
          <mxGeometry x="265" y="-330" width="90" height="30" as="geometry" />
        </mxCell>
        <mxCell id="cDWD59vqWW8E9XmD5x85-144" value="Scadenza" style="text;html=1;align=center;verticalAlign=middle;resizable=0;points=[];autosize=1;strokeColor=none;fillColor=none;" parent="1" vertex="1">
          <mxGeometry x="270" y="-300" width="80" height="30" as="geometry" />
        </mxCell>
        <mxCell id="cDWD59vqWW8E9XmD5x85-148" value="0, N" style="text;html=1;align=center;verticalAlign=middle;resizable=0;points=[];autosize=1;strokeColor=none;fillColor=none;" parent="1" vertex="1">
          <mxGeometry x="775" y="827" width="40" height="30" as="geometry" />
        </mxCell>
        <mxCell id="cDWD59vqWW8E9XmD5x85-149" value="1, 1" style="text;html=1;align=center;verticalAlign=middle;resizable=0;points=[];autosize=1;strokeColor=none;fillColor=none;" parent="1" vertex="1">
          <mxGeometry x="905" y="620" width="40" height="30" as="geometry" />
        </mxCell>
        <mxCell id="cDWD59vqWW8E9XmD5x85-150" value="1, 1" style="text;html=1;align=center;verticalAlign=middle;resizable=0;points=[];autosize=1;strokeColor=none;fillColor=none;" parent="1" vertex="1">
          <mxGeometry x="520" y="620" width="40" height="30" as="geometry" />
        </mxCell>
        <mxCell id="cDWD59vqWW8E9XmD5x85-151" value="0, N" style="text;html=1;align=center;verticalAlign=middle;resizable=0;points=[];autosize=1;strokeColor=none;fillColor=none;" parent="1" vertex="1">
          <mxGeometry x="680" y="820" width="40" height="30" as="geometry" />
        </mxCell>
        <mxCell id="cDWD59vqWW8E9XmD5x85-152" value="0, N" style="text;html=1;align=center;verticalAlign=middle;resizable=0;points=[];autosize=1;strokeColor=none;fillColor=none;" parent="1" vertex="1">
          <mxGeometry x="910" y="570" width="40" height="30" as="geometry" />
        </mxCell>
        <mxCell id="cDWD59vqWW8E9XmD5x85-154" value="1, 1" style="text;html=1;align=center;verticalAlign=middle;resizable=0;points=[];autosize=1;strokeColor=none;fillColor=none;" parent="1" vertex="1">
          <mxGeometry x="520" y="570" width="40" height="30" as="geometry" />
        </mxCell>
        <mxCell id="cDWD59vqWW8E9XmD5x85-159" style="edgeStyle=orthogonalEdgeStyle;rounded=0;orthogonalLoop=1;jettySize=auto;html=1;exitX=0.5;exitY=1;exitDx=0;exitDy=0;entryX=0.5;entryY=0;entryDx=0;entryDy=0;endArrow=none;endFill=0;" parent="1" source="cDWD59vqWW8E9XmD5x85-156" target="cDWD59vqWW8E9XmD5x85-157" edge="1">
          <mxGeometry relative="1" as="geometry" />
        </mxCell>
        <mxCell id="cDWD59vqWW8E9XmD5x85-161" style="edgeStyle=orthogonalEdgeStyle;rounded=0;orthogonalLoop=1;jettySize=auto;html=1;exitX=0.25;exitY=1;exitDx=0;exitDy=0;endArrow=oval;endFill=0;" parent="1" source="cDWD59vqWW8E9XmD5x85-156" target="cDWD59vqWW8E9XmD5x85-160" edge="1">
          <mxGeometry relative="1" as="geometry">
            <Array as="points">
              <mxPoint x="-380" y="250" />
              <mxPoint x="-390" y="250" />
            </Array>
          </mxGeometry>
        </mxCell>
        <mxCell id="cDWD59vqWW8E9XmD5x85-163" style="edgeStyle=orthogonalEdgeStyle;rounded=0;orthogonalLoop=1;jettySize=auto;html=1;exitX=0.25;exitY=0;exitDx=0;exitDy=0;endArrow=oval;endFill=0;" parent="1" source="cDWD59vqWW8E9XmD5x85-156" target="cDWD59vqWW8E9XmD5x85-164" edge="1">
          <mxGeometry relative="1" as="geometry">
            <mxPoint x="-379.83333333333326" y="150" as="targetPoint" />
          </mxGeometry>
        </mxCell>
        <mxCell id="cDWD59vqWW8E9XmD5x85-166" style="edgeStyle=orthogonalEdgeStyle;rounded=0;orthogonalLoop=1;jettySize=auto;html=1;exitX=0.75;exitY=0;exitDx=0;exitDy=0;endArrow=oval;endFill=0;" parent="1" source="cDWD59vqWW8E9XmD5x85-156" target="cDWD59vqWW8E9XmD5x85-165" edge="1">
          <mxGeometry relative="1" as="geometry" />
        </mxCell>
        <mxCell id="cDWD59vqWW8E9XmD5x85-156" value="&lt;div&gt;GIORNO&lt;/div&gt;&lt;div&gt;REPERIBILITA&lt;br&gt;&lt;/div&gt;" style="whiteSpace=wrap;html=1;" parent="1" vertex="1">
          <mxGeometry x="-410" y="180" width="120" height="60" as="geometry" />
        </mxCell>
        <mxCell id="cDWD59vqWW8E9XmD5x85-158" style="edgeStyle=orthogonalEdgeStyle;rounded=0;orthogonalLoop=1;jettySize=auto;html=1;exitX=1;exitY=0.5;exitDx=0;exitDy=0;entryX=0;entryY=0.5;entryDx=0;entryDy=0;endArrow=none;endFill=0;" parent="1" source="cDWD59vqWW8E9XmD5x85-157" target="RWj5NL5v489ZXOZt_Zdf-16" edge="1">
          <mxGeometry relative="1" as="geometry" />
        </mxCell>
        <mxCell id="cDWD59vqWW8E9XmD5x85-157" value="&lt;div&gt;/\&lt;br&gt;&lt;/div&gt;&lt;div&gt;durante&lt;/div&gt;" style="rhombus;whiteSpace=wrap;html=1;" parent="1" vertex="1">
          <mxGeometry x="-390" y="310" width="80" height="80" as="geometry" />
        </mxCell>
        <mxCell id="cDWD59vqWW8E9XmD5x85-160" value="Giorno" style="text;html=1;align=center;verticalAlign=middle;resizable=0;points=[];autosize=1;strokeColor=none;fillColor=none;" parent="1" vertex="1">
          <mxGeometry x="-420" y="270" width="60" height="30" as="geometry" />
        </mxCell>
        <mxCell id="cDWD59vqWW8E9XmD5x85-162" value="" style="endArrow=oval;html=1;rounded=0;endFill=1;" parent="1" edge="1">
          <mxGeometry width="50" height="50" relative="1" as="geometry">
            <mxPoint x="-340" y="260" as="sourcePoint" />
            <mxPoint x="-420" y="260" as="targetPoint" />
          </mxGeometry>
        </mxCell>
        <mxCell id="cDWD59vqWW8E9XmD5x85-164" value="OraInizio" style="text;html=1;align=center;verticalAlign=middle;resizable=0;points=[];autosize=1;strokeColor=none;fillColor=none;" parent="1" vertex="1">
          <mxGeometry x="-420" y="108" width="70" height="30" as="geometry" />
        </mxCell>
        <mxCell id="cDWD59vqWW8E9XmD5x85-165" value="OraFine" style="text;html=1;align=center;verticalAlign=middle;resizable=0;points=[];autosize=1;strokeColor=none;fillColor=none;" parent="1" vertex="1">
          <mxGeometry x="-350" y="108" width="70" height="30" as="geometry" />
        </mxCell>
        <mxCell id="cDWD59vqWW8E9XmD5x85-167" value="1, 1" style="text;html=1;align=center;verticalAlign=middle;resizable=0;points=[];autosize=1;strokeColor=none;fillColor=none;" parent="1" vertex="1">
          <mxGeometry x="-310" y="349" width="40" height="30" as="geometry" />
        </mxCell>
        <mxCell id="cDWD59vqWW8E9XmD5x85-168" value="0, 7" style="text;html=1;align=center;verticalAlign=middle;resizable=0;points=[];autosize=1;strokeColor=none;fillColor=none;" parent="1" vertex="1">
          <mxGeometry x="-335" y="245" width="40" height="30" as="geometry" />
        </mxCell>
        <mxCell id="tOQPzSeA4tkgRXEeeFOA-1" value="" style="endArrow=none;html=1;rounded=0;startArrow=oval;startFill=1;" edge="1" parent="1">
          <mxGeometry width="50" height="50" relative="1" as="geometry">
            <mxPoint x="1360" y="530" as="sourcePoint" />
            <mxPoint x="1250" y="530" as="targetPoint" />
          </mxGeometry>
        </mxCell>
        <mxCell id="tOQPzSeA4tkgRXEeeFOA-2" value="" style="endArrow=none;html=1;rounded=0;startArrow=oval;startFill=1;" edge="1" parent="1">
          <mxGeometry width="50" height="50" relative="1" as="geometry">
            <mxPoint x="500" y="-270" as="sourcePoint" />
            <mxPoint x="390" y="-360" as="targetPoint" />
            <Array as="points">
              <mxPoint x="390" y="-270" />
            </Array>
          </mxGeometry>
        </mxCell>
        <mxCell id="tOQPzSeA4tkgRXEeeFOA-4" value="" style="endArrow=none;html=1;rounded=0;startArrow=oval;startFill=1;" edge="1" parent="1">
          <mxGeometry width="50" height="50" relative="1" as="geometry">
            <mxPoint x="-110" y="580" as="sourcePoint" />
            <mxPoint x="-110" y="620" as="targetPoint" />
          </mxGeometry>
        </mxCell>
        <mxCell id="tOQPzSeA4tkgRXEeeFOA-5" value="" style="endArrow=none;html=1;rounded=0;startArrow=oval;startFill=1;" edge="1" parent="1">
          <mxGeometry width="50" height="50" relative="1" as="geometry">
            <mxPoint x="360" y="580" as="sourcePoint" />
            <mxPoint x="360" y="620" as="targetPoint" />
          </mxGeometry>
        </mxCell>
        <mxCell id="tOQPzSeA4tkgRXEeeFOA-6" value="0, N" style="text;html=1;align=center;verticalAlign=middle;resizable=0;points=[];autosize=1;strokeColor=none;fillColor=none;" vertex="1" parent="1">
          <mxGeometry x="475" y="815" width="50" height="30" as="geometry" />
        </mxCell>
        <mxCell id="tOQPzSeA4tkgRXEeeFOA-7" value="1, 1" style="text;html=1;align=center;verticalAlign=middle;resizable=0;points=[];autosize=1;strokeColor=none;fillColor=none;" vertex="1" parent="1">
          <mxGeometry x="420" y="630" width="40" height="30" as="geometry" />
        </mxCell>
        <mxCell id="tOQPzSeA4tkgRXEeeFOA-8" value="" style="endArrow=none;html=1;rounded=0;startArrow=oval;startFill=1;" edge="1" parent="1">
          <mxGeometry width="50" height="50" relative="1" as="geometry">
            <mxPoint x="470" y="830" as="sourcePoint" />
            <mxPoint x="480" y="920" as="targetPoint" />
            <Array as="points">
              <mxPoint x="370" y="830" />
              <mxPoint x="370" y="920" />
            </Array>
          </mxGeometry>
        </mxCell>
        <mxCell id="tOQPzSeA4tkgRXEeeFOA-9" value="" style="endArrow=none;html=1;rounded=0;startArrow=oval;startFill=1;" edge="1" parent="1">
          <mxGeometry width="50" height="50" relative="1" as="geometry">
            <mxPoint x="1060" y="40" as="sourcePoint" />
            <mxPoint x="960" y="-50" as="targetPoint" />
            <Array as="points">
              <mxPoint x="960" y="40" />
            </Array>
          </mxGeometry>
        </mxCell>
        <mxCell id="tOQPzSeA4tkgRXEeeFOA-10" value="" style="endArrow=none;html=1;rounded=0;startArrow=oval;startFill=1;" edge="1" parent="1">
          <mxGeometry width="50" height="50" relative="1" as="geometry">
            <mxPoint x="730" y="930" as="sourcePoint" />
            <mxPoint x="760" y="830" as="targetPoint" />
            <Array as="points">
              <mxPoint x="830" y="930" />
              <mxPoint x="830" y="830" />
            </Array>
          </mxGeometry>
        </mxCell>
      </root>
    </mxGraphModel>
  </diagram>
</mxfile>
